<svg version="1.1" id="Layer_1" xmlns="http://www.w3.org/2000/svg" xmlns:xlink="http://www.w3.org/1999/xlink" x="0px" y="0px"
	 width="100%" viewBox="0 0 564 564" enable-background="new 0 0 564 564" xml:space="preserve">
<path fill="#000000" opacity="1.000000" stroke="none" 
	d="
M363.000000,565.000000 
	C242.000000,565.000000 121.500000,565.000000 1.000000,565.000000 
	C1.000000,377.000000 1.000000,189.000000 1.000000,1.000000 
	C189.000000,1.000000 377.000000,1.000000 565.000000,1.000000 
	C565.000000,189.000000 565.000000,377.000000 565.000000,565.000000 
	C497.833344,565.000000 430.666656,565.000000 363.000000,565.000000 
M442.253998,169.009903 
	C441.505005,169.057770 440.756012,169.105621 439.079926,168.999939 
	C404.715851,169.052521 370.351746,169.105087 335.107880,169.007675 
	C327.535980,168.135620 321.142242,171.084152 315.739563,175.867722 
	C311.218475,179.870697 306.107117,183.823212 305.279022,191.168839 
	C304.183685,195.472595 302.164337,199.770554 302.137268,204.081009 
	C301.891296,243.245041 302.030670,282.411377 301.913574,321.576569 
	C301.905182,324.380127 300.763519,327.180298 299.875580,330.632141 
	C294.491699,339.593109 285.978119,341.650696 273.380219,338.856842 
	C272.425568,337.547668 271.318085,336.322235 270.546143,334.912994 
	C268.571350,331.307800 266.745941,327.620728 264.996460,323.042603 
	C264.999969,283.885010 265.054840,244.727219 264.920990,205.570084 
	C264.908722,201.978683 263.690063,198.391403 263.065277,194.049927 
	C260.355408,186.095581 254.646530,180.623352 248.030518,175.965759 
	C248.030518,175.965759 248.100693,175.952332 247.824326,175.271729 
	C244.233826,170.208069 238.824753,170.182297 233.464813,170.121292 
	C233.464813,170.121292 233.511047,170.122040 232.904724,169.406219 
	C230.940842,169.268936 228.976837,169.010437 227.013092,169.012360 
	C190.338089,169.048279 153.663086,169.115143 116.121254,169.029053 
	C115.083908,169.773407 113.066933,170.701721 113.166611,171.232559 
	C113.866325,174.958618 114.504257,178.836487 116.095360,182.227875 
	C120.367958,191.334763 125.230148,200.162888 129.634369,209.210663 
	C136.797195,223.925491 143.634659,238.800186 150.916107,253.455032 
	C153.719910,259.098053 158.261627,263.127289 165.328781,264.821503 
	C188.538910,265.158875 211.749054,265.496216 235.644974,266.115234 
	C239.474487,267.810303 243.231873,269.657776 244.893890,273.862183 
	C245.823471,276.213684 246.428360,278.693512 247.006454,281.967896 
	C247.366882,284.525055 248.037872,287.081818 248.040817,289.639404 
	C248.079941,323.594177 247.981827,357.549194 248.080673,391.503693 
	C248.088196,394.084930 249.326553,396.662567 249.932175,400.012421 
	C252.262985,409.580902 257.737976,416.641754 267.091492,421.614471 
	C277.452118,426.470490 287.864868,426.766235 298.895874,421.771118 
	C299.630554,421.210114 300.365204,420.649078 301.777039,420.016815 
	C302.921783,419.021301 304.066498,418.025757 305.577362,417.026459 
	C305.577362,417.026459 305.915649,416.884308 306.602600,416.937225 
	C307.457642,415.644836 308.312683,414.352448 309.808258,412.811096 
	C313.682617,408.235504 317.110138,403.453796 317.840332,396.645508 
	C317.893494,361.860565 317.955505,327.075653 317.957306,292.290710 
	C317.957367,291.234619 317.329193,290.178528 317.716919,288.791046 
	C319.188110,283.213135 320.659332,277.635193 322.722870,271.813293 
	C323.191071,270.891724 323.659271,269.970154 324.880798,269.011078 
	C327.561890,268.015778 330.180817,266.431488 332.936279,266.140503 
	C339.951294,265.399597 347.027405,265.236786 354.911926,265.004211 
	C355.634247,265.326233 356.364197,265.944550 357.077759,265.926208 
	C369.684540,265.601868 382.289368,265.199982 395.789062,264.929138 
	C405.493073,266.170837 411.795807,261.013458 415.932312,253.210892 
	C421.665009,242.397354 426.736816,231.231720 432.029907,220.187302 
	C438.731384,206.204330 445.449921,192.228287 451.969330,178.160370 
	C453.245209,175.407196 453.645844,172.248383 454.559845,168.871414 
	C452.317230,169.012421 451.161652,169.085083 449.139862,169.002319 
	C447.091217,169.052780 445.042542,169.103226 442.253998,169.009903 
z"/>
<path fill="#E13921" opacity="1.000000" stroke="none" 
	d="
M233.511047,170.122040 
	C233.511047,170.122040 233.464813,170.121292 233.706512,170.400940 
	C238.665710,172.437836 243.383194,174.195084 248.100693,175.952332 
	C248.100693,175.952332 248.030518,175.965759 247.885376,176.266037 
	C258.742737,185.271713 261.855652,197.017410 261.754669,210.511215 
	C261.487183,246.254379 261.616180,282.001038 261.737000,317.745819 
	C261.749725,321.512054 262.310242,325.410919 263.404755,329.008423 
	C265.171844,334.816681 268.940460,339.106171 275.003021,340.993469 
	C275.011505,341.018188 275.055084,340.990326 275.138000,341.136169 
	C275.220947,341.282013 275.528503,341.413086 275.528503,341.413086 
	C275.528503,341.413086 275.845764,341.307770 276.202209,341.533508 
	C280.274292,341.884552 283.989929,342.009888 287.858398,342.230896 
	C288.328705,342.217285 288.646088,342.108032 289.336243,341.994019 
	C292.513062,340.396606 295.317169,338.803955 298.201752,337.259338 
	C298.282196,337.307373 298.346405,337.010681 298.554138,336.891724 
	C298.761841,336.772766 298.977417,336.345337 299.043091,336.390564 
	C299.108734,336.435760 299.018402,336.268738 299.324341,336.013611 
	C303.382629,331.528839 305.352386,326.681183 304.848511,320.488373 
	C304.893036,282.366394 304.854187,244.703094 304.945557,206.642960 
	C306.170380,185.967865 315.725677,174.815002 336.502319,170.185120 
	C356.710327,170.272537 376.459045,170.306488 396.207581,170.270065 
	C410.804657,170.243149 425.401550,170.124542 440.237976,170.137482 
	C441.319397,170.167191 442.161407,170.106171 443.431946,170.139404 
	C445.897156,170.176514 447.933899,170.119400 450.307800,170.266006 
	C450.578461,171.823685 450.923370,173.373856 450.385010,174.502808 
	C438.144928,200.169922 425.781067,225.777985 413.505859,251.428406 
	C409.718719,259.341949 403.653259,262.944489 394.817261,262.838226 
	C376.345062,262.616058 357.867828,262.719635 339.393402,262.818146 
	C332.822449,262.853180 326.395111,263.672211 321.353455,269.049316 
	C320.997833,269.596222 320.843506,270.024414 320.409668,270.670135 
	C316.252777,276.355225 315.331696,282.498810 315.884949,289.461823 
	C315.749664,300.207550 315.673981,310.494507 315.693665,320.781281 
	C315.734619,342.180267 315.826111,363.579163 315.731628,385.261292 
	C315.673676,387.038544 315.780945,388.532623 315.801636,390.388000 
	C315.748444,391.488953 315.781769,392.228577 315.596069,393.252655 
	C312.560272,400.011047 309.743530,406.485016 306.698059,413.029053 
	C306.189941,413.280609 305.999756,413.530151 305.598175,413.956970 
	C304.411926,414.973663 303.526306,415.881042 302.377380,416.855713 
	C301.582458,417.380554 301.050812,417.838165 300.146179,418.366760 
	C284.823120,425.370544 271.616882,423.621613 261.027771,413.597595 
	C255.055237,407.943848 252.566803,400.688751 250.703186,392.597351 
	C250.700211,376.033691 250.739807,359.927551 250.639206,343.822266 
	C250.512711,323.573517 250.271484,303.325470 250.200134,282.891785 
	C250.212357,282.144714 250.104202,281.582977 249.986542,280.628387 
	C246.644119,267.400482 240.405869,262.521484 227.580139,262.915771 
	C224.763550,262.899231 222.377914,263.022614 219.560501,263.080933 
	C217.098541,263.087616 215.068329,263.159363 212.771820,263.107666 
	C212.325424,263.060852 212.145340,263.137390 211.506454,263.124146 
	C199.859772,263.108856 188.671890,263.183411 177.254730,263.083099 
	C176.683014,263.028687 176.340607,263.149109 175.604156,263.185883 
	C174.141724,263.141266 173.073303,263.180267 171.630463,263.014526 
	C169.558105,262.755737 167.860168,262.701721 165.883896,262.472900 
	C164.355576,261.875946 163.105621,261.453766 161.786285,260.861206 
	C161.530914,260.492767 161.305603,260.424561 160.773285,260.235718 
	C157.942749,257.316193 154.733353,255.016022 152.955185,251.899323 
	C149.527542,245.891449 146.953003,239.400833 143.946548,233.147964 
	C134.528442,213.560181 125.070709,193.991455 115.638969,174.410233 
	C114.743912,172.552017 113.694313,170.588089 117.446106,170.064560 
	C137.845688,170.174347 157.783188,170.206741 177.720688,170.201065 
	C196.317474,170.195786 214.914261,170.150009 233.511047,170.122040 
z"/>
<path fill="#FAD9CE" opacity="1.000000" stroke="none" 
	d="
M321.554749,268.930634 
	C326.395111,263.672211 332.822449,262.853180 339.393402,262.818146 
	C357.867828,262.719635 376.345062,262.616058 394.817261,262.838226 
	C403.653259,262.944489 409.718719,259.341949 413.505859,251.428406 
	C425.781067,225.777985 438.144928,200.169922 450.385010,174.502808 
	C450.923370,173.373856 450.578461,171.823685 450.319153,170.039963 
	C449.993317,169.610199 450.006073,169.157745 450.006073,169.157745 
	C451.161652,169.085083 452.317230,169.012421 454.559845,168.871414 
	C453.645844,172.248383 453.245209,175.407196 451.969330,178.160370 
	C445.449921,192.228287 438.731384,206.204330 432.029907,220.187302 
	C426.736816,231.231720 421.665009,242.397354 415.932312,253.210892 
	C411.795807,261.013458 405.493073,266.170837 394.989685,264.678955 
	C385.083038,264.314972 375.975555,264.107391 366.868561,264.128784 
	C362.604858,264.138794 358.342194,264.590851 354.079041,264.842590 
	C347.027405,265.236786 339.951294,265.399597 332.936279,266.140503 
	C330.180817,266.431488 327.561890,268.015778 324.075256,269.013672 
	C322.698029,268.987732 322.126404,268.959198 321.554749,268.930634 
z"/>
<path fill="#F3CABF" opacity="1.000000" stroke="none" 
	d="
M274.994537,340.968719 
	C268.940460,339.106171 265.171844,334.816681 263.404755,329.008423 
	C262.310242,325.410919 261.749725,321.512054 261.737000,317.745819 
	C261.616180,282.001038 261.487183,246.254379 261.754669,210.511215 
	C261.855652,197.017410 258.742737,185.271713 247.889679,176.230560 
	C254.646530,180.623352 260.355408,186.095581 262.968933,194.903320 
	C262.951965,200.240295 263.097717,204.723816 263.100189,209.207413 
	C263.119629,244.265594 263.066345,279.323944 263.188080,314.381683 
	C263.199188,317.578491 264.277863,320.771606 264.860779,323.966431 
	C266.745941,327.620728 268.571350,331.307800 270.546143,334.912994 
	C271.318085,336.322235 272.425568,337.547668 273.825867,339.229980 
	C274.512543,340.058350 274.753540,340.513519 274.994537,340.968719 
z"/>
<path fill="#FFFAF9" opacity="1.000000" stroke="none" 
	d="
M304.815338,207.039795 
	C304.854187,244.703094 304.893036,282.366394 304.537689,320.657104 
	C302.811920,324.183685 301.480347,327.082855 300.148804,329.982025 
	C300.763519,327.180298 301.905182,324.380127 301.913574,321.576569 
	C302.030670,282.411377 301.891296,243.245041 302.137268,204.081009 
	C302.164337,199.770554 304.183685,195.472595 305.590637,191.389587 
	C305.062469,195.323502 304.023499,199.008347 303.489685,202.764984 
	C303.299957,204.100159 304.337830,205.609802 304.815338,207.039795 
z"/>
<path fill="#FADFD7" opacity="1.000000" stroke="none" 
	d="
M116.984032,169.970566 
	C113.694313,170.588089 114.743912,172.552017 115.638969,174.410233 
	C125.070709,193.991455 134.528442,213.560181 143.946548,233.147964 
	C146.953003,239.400833 149.527542,245.891449 152.955185,251.899323 
	C154.733353,255.016022 157.942749,257.316193 160.872192,260.374207 
	C161.412231,260.926514 161.617859,261.015991 161.855652,261.031616 
	C163.105621,261.453766 164.355576,261.875946 165.854919,262.770691 
	C166.102097,263.442657 166.099899,263.642059 165.798355,263.898254 
	C165.298401,263.986755 165.097778,264.018555 164.897171,264.050323 
	C158.261627,263.127289 153.719910,259.098053 150.916107,253.455032 
	C143.634659,238.800186 136.797195,223.925491 129.634369,209.210663 
	C125.230148,200.162888 120.367958,191.334763 116.095360,182.227875 
	C114.504257,178.836487 113.866325,174.958618 113.166611,171.232559 
	C113.066933,170.701721 115.083908,169.773407 116.549805,169.301025 
	C116.978363,169.572998 116.984032,169.970566 116.984032,169.970566 
z"/>
<path fill="#FFFAF9" opacity="1.000000" stroke="none" 
	d="
M250.079758,283.077118 
	C250.271484,303.325470 250.512711,323.573517 250.639206,343.822266 
	C250.739807,359.927551 250.700211,376.033691 250.517670,392.932190 
	C250.205917,395.563934 250.099350,397.402893 249.992798,399.241882 
	C249.326553,396.662567 248.088196,394.084930 248.080673,391.503693 
	C247.981827,357.549194 248.079941,323.594177 248.040817,289.639404 
	C248.037872,287.081818 247.366882,284.525055 247.339172,281.636505 
	C248.311478,281.599335 248.951080,281.893524 249.675018,282.430969 
	C249.866150,282.808472 249.972961,282.942810 250.079758,283.077118 
z"/>
<path fill="#FFFAF9" opacity="1.000000" stroke="none" 
	d="
M264.928619,323.504517 
	C264.277863,320.771606 263.199188,317.578491 263.188080,314.381683 
	C263.066345,279.323944 263.119629,244.265594 263.100189,209.207413 
	C263.097717,204.723816 262.951965,200.240295 262.952087,195.279465 
	C263.690063,198.391403 264.908722,201.978683 264.920990,205.570084 
	C265.054840,244.727219 264.999969,283.885010 264.928619,323.504517 
z"/>
<path fill="#FFFFFF" opacity="1.000000" stroke="none" 
	d="
M315.896790,384.978088 
	C315.826111,363.579163 315.734619,342.180267 315.693665,320.781281 
	C315.673981,310.494507 315.749664,300.207550 316.134827,289.505554 
	C316.656281,289.101105 316.825073,289.111755 316.993896,289.122437 
	C317.329193,290.178528 317.957367,291.234619 317.957306,292.290710 
	C317.955505,327.075653 317.893494,361.860565 317.394775,396.494720 
	C316.571167,395.218689 316.193146,394.093445 315.815094,392.968201 
	C315.781769,392.228577 315.748444,391.488953 316.036865,390.129639 
	C316.204712,387.999298 316.050751,386.488708 315.896790,384.978088 
z"/>
<path fill="#F3BEB2" opacity="1.000000" stroke="none" 
	d="
M249.962479,399.627136 
	C250.099350,397.402893 250.205917,395.563934 250.498001,393.390076 
	C252.566803,400.688751 255.055237,407.943848 261.027771,413.597595 
	C271.616882,423.621613 284.823120,425.370544 300.285522,418.817291 
	C300.898468,419.493927 300.999176,419.790985 301.099884,420.088043 
	C300.365204,420.649078 299.630554,421.210114 298.175049,421.821167 
	C291.458313,422.556061 285.458008,423.789093 279.468048,423.740753 
	C275.186127,423.706177 270.918060,421.952789 266.643799,420.966370 
	C257.737976,416.641754 252.262985,409.580902 249.962479,399.627136 
z"/>
<path fill="#FAD9CE" opacity="1.000000" stroke="none" 
	d="
M304.945557,206.642960 
	C304.337830,205.609802 303.299957,204.100159 303.489685,202.764984 
	C304.023499,199.008347 305.062469,195.323502 305.937653,191.221878 
	C306.107117,183.823212 311.218475,179.870697 315.739563,175.867722 
	C321.142242,171.084152 327.535980,168.135620 335.559326,169.318756 
	C336.010742,169.629822 336.042908,170.101440 336.042908,170.101440 
	C315.725677,174.815002 306.170380,185.967865 304.945557,206.642960 
z"/>
<path fill="#F6D0CB" opacity="1.000000" stroke="none" 
	d="
M117.446106,170.064560 
	C116.984032,169.970566 116.978363,169.572998 116.983231,169.374268 
	C153.663086,169.115143 190.338089,169.048279 227.013092,169.012360 
	C228.976837,169.010437 230.940842,169.268936 233.207886,169.764130 
	C214.914261,170.150009 196.317474,170.195786 177.720688,170.201065 
	C157.783188,170.206741 137.845688,170.174347 117.446106,170.064560 
z"/>
<path fill="#FFFFFF" opacity="1.000000" stroke="none" 
	d="
M165.112976,264.435913 
	C165.097778,264.018555 165.298401,263.986755 166.181427,263.946045 
	C168.577545,263.697845 170.291214,263.458557 172.004898,263.219269 
	C173.073303,263.180267 174.141724,263.141266 175.837097,263.337891 
	C176.804031,263.468384 177.144028,263.363159 177.484009,263.257935 
	C188.671890,263.183411 199.859772,263.108856 211.589813,263.298828 
	C212.434036,263.452576 212.736084,263.341827 213.038132,263.231079 
	C215.068329,263.159363 217.098541,263.087616 219.879211,263.313873 
	C223.086853,263.742615 225.544022,263.873322 228.372086,264.045288 
	C230.815033,264.668884 232.887115,265.251251 234.959183,265.833588 
	C211.749054,265.496216 188.538910,265.158875 165.112976,264.435913 
z"/>
<path fill="#F6D0CB" opacity="1.000000" stroke="none" 
	d="
M336.502319,170.185120 
	C336.042908,170.101440 336.010742,169.629822 335.999207,169.393738 
	C370.351746,169.105087 404.715851,169.052521 439.541626,169.300034 
	C440.003296,169.600128 439.998535,170.046783 439.998535,170.046783 
	C425.401550,170.124542 410.804657,170.243149 396.207581,170.270065 
	C376.459045,170.306488 356.710327,170.272537 336.502319,170.185120 
z"/>
<path fill="#F9D9D1" opacity="1.000000" stroke="none" 
	d="
M300.012177,330.307068 
	C301.480347,327.082855 302.811920,324.183685 304.454285,321.115784 
	C305.352386,326.681183 303.382629,331.528839 299.310425,336.020599 
	C298.990631,336.282715 298.977417,336.345337 298.977417,336.345337 
	C298.977417,336.345337 298.761841,336.772766 298.500275,336.901947 
	C298.238708,337.031128 298.121307,337.211304 298.121307,337.211304 
	C295.317169,338.803955 292.513062,340.396606 289.019226,342.003845 
	C288.121552,342.057343 287.913544,342.096283 287.705536,342.135254 
	C283.989929,342.009888 280.274292,341.884552 276.088348,341.443726 
	C275.443604,341.028381 275.255951,340.982391 275.055084,340.990326 
	C275.055084,340.990326 275.011505,341.018188 275.003021,340.993469 
	C274.753540,340.513519 274.512543,340.058350 274.149963,339.375580 
	C285.978119,341.650696 294.491699,339.593109 300.012177,330.307068 
z"/>
<path fill="#FAD9CE" opacity="1.000000" stroke="none" 
	d="
M235.302078,265.974426 
	C232.887115,265.251251 230.815033,264.668884 228.382233,263.808289 
	C228.021500,263.530029 228.011093,263.055756 228.011093,263.055756 
	C240.405869,262.521484 246.644119,267.400482 249.880249,280.918243 
	C249.719208,281.796539 249.654938,281.992126 249.590668,282.187744 
	C248.951080,281.893524 248.311478,281.599335 247.425720,281.210327 
	C246.428360,278.693512 245.823471,276.213684 244.893890,273.862183 
	C243.231873,269.657776 239.474487,267.810303 235.302078,265.974426 
z"/>
<path fill="#FFFFFF" opacity="1.000000" stroke="none" 
	d="
M354.495483,264.923401 
	C358.342194,264.590851 362.604858,264.138794 366.868561,264.128784 
	C375.975555,264.107391 385.083038,264.314972 394.542480,264.621796 
	C382.289368,265.199982 369.684540,265.601868 357.077759,265.926208 
	C356.364197,265.944550 355.634247,265.326233 354.495483,264.923401 
z"/>
<path fill="#FAD9CE" opacity="1.000000" stroke="none" 
	d="
M315.596069,393.252655 
	C316.193146,394.093445 316.571167,395.218689 317.009277,396.707947 
	C317.110138,403.453796 313.682617,408.235504 309.114319,412.920441 
	C307.922485,413.006195 307.424652,412.982605 306.926758,412.958984 
	C309.743530,406.485016 312.560272,400.011047 315.596069,393.252655 
z"/>
<path fill="#FAD9CE" opacity="1.000000" stroke="none" 
	d="
M317.355408,288.956726 
	C316.825073,289.111755 316.656281,289.101105 316.237610,289.046753 
	C315.331696,282.498810 316.252777,276.355225 320.625946,270.958740 
	C321.458038,271.372284 321.794281,271.714783 322.130524,272.057281 
	C320.659332,277.635193 319.188110,283.213135 317.355408,288.956726 
z"/>
<path fill="#FFFAF9" opacity="1.000000" stroke="none" 
	d="
M266.867645,421.290405 
	C270.918060,421.952789 275.186127,423.706177 279.468048,423.740753 
	C285.458008,423.789093 291.458313,422.556061 297.894989,421.921387 
	C287.864868,426.766235 277.452118,426.470490 266.867645,421.290405 
z"/>
<path fill="#F3CABF" opacity="1.000000" stroke="none" 
	d="
M247.962509,175.612030 
	C243.383194,174.195084 238.665710,172.437836 233.695679,170.380493 
	C238.824753,170.182297 244.233826,170.208069 247.962509,175.612030 
z"/>
<path fill="#FADFD7" opacity="1.000000" stroke="none" 
	d="
M301.438477,420.052429 
	C300.999176,419.790985 300.898468,419.493927 300.658447,418.746338 
	C301.050812,417.838165 301.582458,417.380554 302.806305,416.894592 
	C304.069427,416.920929 304.640320,416.975586 305.211243,417.030243 
	C304.066498,418.025757 302.921783,419.021301 301.438477,420.052429 
z"/>
<path fill="#FADFD7" opacity="1.000000" stroke="none" 
	d="
M306.698090,413.029053 
	C307.424652,412.982605 307.922485,413.006195 308.794037,413.044922 
	C308.312683,414.352448 307.457642,415.644836 306.226044,416.532043 
	C305.865936,415.367126 305.882385,414.607422 305.898804,413.847717 
	C305.999756,413.530151 306.189941,413.280609 306.698090,413.029053 
z"/>
<path fill="#F6D0CB" opacity="1.000000" stroke="none" 
	d="
M449.572968,169.080032 
	C450.006073,169.157745 449.993317,169.610199 449.981964,169.836243 
	C447.933899,170.119400 445.897156,170.176514 443.429321,169.916534 
	C442.998199,169.599426 442.993896,169.153687 442.993896,169.153687 
	C445.042542,169.103226 447.091217,169.052780 449.572968,169.080032 
z"/>
<path fill="#F3BEB2" opacity="1.000000" stroke="none" 
	d="
M305.598175,413.956970 
	C305.882385,414.607422 305.865936,415.367126 305.882568,416.505554 
	C305.915649,416.884308 305.577362,417.026459 305.394287,417.028351 
	C304.640320,416.975586 304.069427,416.920929 303.069580,416.827362 
	C303.526306,415.881042 304.411926,414.973663 305.598175,413.956970 
z"/>
<path fill="#FADFD7" opacity="1.000000" stroke="none" 
	d="
M322.426697,271.935303 
	C321.794281,271.714783 321.458038,271.372284 320.905518,270.741211 
	C320.843506,270.024414 320.997833,269.596222 321.353455,269.049316 
	C322.126404,268.959198 322.698029,268.987732 323.698578,269.032410 
	C323.659271,269.970154 323.191071,270.891724 322.426697,271.935303 
z"/>
<path fill="#FAD9CE" opacity="1.000000" stroke="none" 
	d="
M442.623962,169.081787 
	C442.993896,169.153687 442.998199,169.599426 443.000793,169.822296 
	C442.161407,170.106171 441.319397,170.167191 440.237976,170.137482 
	C439.998535,170.046783 440.003296,169.600128 440.005157,169.376801 
	C440.756012,169.105621 441.505005,169.057770 442.623962,169.081787 
z"/>
<path fill="#FAD9CE" opacity="1.000000" stroke="none" 
	d="
M315.731598,385.261292 
	C316.050751,386.488708 316.204712,387.999298 316.123413,389.768311 
	C315.780945,388.532623 315.673676,387.038544 315.731598,385.261292 
z"/>
<path fill="#F3CABF" opacity="1.000000" stroke="none" 
	d="
M227.580139,262.915771 
	C228.011093,263.055756 228.021500,263.530029 228.011353,263.767029 
	C225.544022,263.873322 223.086853,263.742615 220.310974,263.378937 
	C222.377914,263.022614 224.763550,262.899231 227.580139,262.915771 
z"/>
<path fill="#F3CABF" opacity="1.000000" stroke="none" 
	d="
M171.630463,263.014526 
	C170.291214,263.458557 168.577545,263.697845 166.480774,263.889282 
	C166.099899,263.642059 166.102097,263.442657 166.133270,262.945465 
	C167.860168,262.701721 169.558105,262.755737 171.630463,263.014526 
z"/>
<path fill="#F3BEB2" opacity="1.000000" stroke="none" 
	d="
M249.675018,282.430969 
	C249.654938,281.992126 249.719208,281.796539 249.889755,281.311127 
	C250.104202,281.582977 250.212357,282.144714 250.200134,282.891785 
	C249.972961,282.942810 249.866150,282.808472 249.675018,282.430969 
z"/>
<path fill="#F3CABF" opacity="1.000000" stroke="none" 
	d="
M161.786285,260.861206 
	C161.617859,261.015991 161.412231,260.926514 161.139877,260.624695 
	C161.305603,260.424561 161.530914,260.492767 161.786285,260.861206 
z"/>
<path fill="#F3CABF" opacity="1.000000" stroke="none" 
	d="
M177.254730,263.083099 
	C177.144028,263.363159 176.804031,263.468384 176.231125,263.421570 
	C176.340607,263.149109 176.683014,263.028687 177.254730,263.083099 
z"/>
<path fill="#F3CABF" opacity="1.000000" stroke="none" 
	d="
M287.858398,342.230896 
	C287.913544,342.096283 288.121552,342.057343 288.646515,342.008575 
	C288.646088,342.108032 288.328705,342.217285 287.858398,342.230896 
z"/>
<path fill="#F3CABF" opacity="1.000000" stroke="none" 
	d="
M275.138000,341.136169 
	C275.255951,340.982391 275.443604,341.028381 275.731873,341.218018 
	C275.845764,341.307770 275.528503,341.413086 275.528503,341.413086 
	C275.528503,341.413086 275.220947,341.282013 275.138000,341.136169 
z"/>
<path fill="#F3CABF" opacity="1.000000" stroke="none" 
	d="
M298.201752,337.259338 
	C298.121307,337.211304 298.238708,337.031128 298.292542,337.020905 
	C298.346405,337.010681 298.282196,337.307373 298.201752,337.259338 
z"/>
<path fill="#F3CABF" opacity="1.000000" stroke="none" 
	d="
M299.043091,336.390564 
	C298.977417,336.345337 298.990631,336.282715 299.004517,336.275726 
	C299.018402,336.268738 299.108734,336.435760 299.043091,336.390564 
z"/>
<path fill="#F3CABF" opacity="1.000000" stroke="none" 
	d="
M212.771820,263.107666 
	C212.736084,263.341827 212.434036,263.452576 212.048615,263.388611 
	C212.145340,263.137390 212.325424,263.060852 212.771820,263.107666 
z"/>
</svg>